<svg width="19" height="15" viewBox="0 0 19 15" fill="none" xmlns="http://www.w3.org/2000/svg">
<path d="M17.6896 3.34998V11.5681C17.6896 12.113 17.4732 12.6355 17.0879 13.0208C16.7026 13.4061 16.18 13.6226 15.6351 13.6226H3.30794C2.76305 13.6226 2.24047 13.4061 1.85517 13.0208C1.46988 12.6355 1.25342 12.113 1.25342 11.5681V3.34998" stroke="#170F49" stroke-width="1.38064" stroke-linecap="round" stroke-linejoin="round"/>
<path d="M17.6896 3.35C17.6896 2.8051 17.4732 2.28253 17.0879 1.89723C16.7026 1.51193 16.18 1.29547 15.6351 1.29547H3.30794C2.76305 1.29547 2.24047 1.51193 1.85517 1.89723C1.46988 2.28253 1.25342 2.8051 1.25342 3.35L8.38262 7.80147C8.70915 8.00555 9.08646 8.11376 9.47152 8.11376C9.85658 8.11376 10.2339 8.00555 10.5604 7.80147L17.6896 3.35Z" stroke="#170F49" stroke-width="1.38064" stroke-linecap="round" stroke-linejoin="round"/>
</svg>
