<svg width="25" height="25" viewBox="0 0 25 25" fill="none" xmlns="http://www.w3.org/2000/svg">
<path fill-rule="evenodd" clip-rule="evenodd" d="M11.1697 4.49505C10.4993 4.49505 9.92906 4.96087 9.76898 5.58872H15.1516C14.9916 4.96087 14.4213 4.49505 13.7509 4.49505H11.1697ZM16.6724 5.58871H18.6534C20.7544 5.58871 22.4653 7.32035 22.4653 9.44692C22.4653 9.44692 22.4053 10.3472 22.3853 11.6009C22.3833 11.7001 22.3352 11.7973 22.2562 11.8561C21.775 12.2115 21.3347 12.5052 21.2947 12.5254C19.6339 13.6393 17.7039 14.4231 15.6479 14.813C15.5138 14.8393 15.3818 14.7695 15.3137 14.65C14.7374 13.6515 13.6609 13.0014 12.4603 13.0014C11.2677 13.0014 10.1812 13.6444 9.58789 14.6439C9.51886 14.7614 9.38879 14.8292 9.25573 14.8039C7.21671 14.413 5.28674 13.6302 3.63592 12.5355L2.67544 11.8672C2.5954 11.8166 2.54537 11.7254 2.54537 11.6242C2.51536 11.1077 2.46533 9.44692 2.46533 9.44692C2.46533 7.32035 4.17619 5.58871 6.27724 5.58871H8.24822C8.43832 4.12037 9.66893 2.97607 11.1697 2.97607H13.7509C15.2517 2.97607 16.4823 4.12037 16.6724 5.58871ZM22.1251 13.7913L22.0851 13.8116C20.0641 15.1685 17.6329 16.0698 15.0816 16.4445C14.7214 16.4951 14.3612 16.2622 14.2612 15.8977C14.0411 15.0673 13.3307 14.5204 12.4803 14.5204H12.4703H12.4503C11.5999 14.5204 10.8895 15.0673 10.6694 15.8977C10.5694 16.2622 10.2092 16.4951 9.84902 16.4445C7.29775 16.0698 4.86653 15.1685 2.84552 13.8116C2.83552 13.8015 2.73547 13.7407 2.65543 13.7913C2.56538 13.842 2.56538 13.9635 2.56538 13.9635L2.63542 19.128C2.63542 21.2546 4.33627 22.9761 6.43732 22.9761H18.4833C20.5844 22.9761 22.2852 21.2546 22.2852 19.128L22.3653 13.9635C22.3653 13.9635 22.3653 13.842 22.2752 13.7913C22.2252 13.761 22.1652 13.7711 22.1251 13.7913ZM13.2107 18.0344C13.2107 18.4597 12.8805 18.7938 12.4603 18.7938C12.0501 18.7938 11.7099 18.4597 11.7099 18.0344V16.728C11.7099 16.3128 12.0501 15.9685 12.4603 15.9685C12.8805 15.9685 13.2107 16.3128 13.2107 16.728V18.0344Z" fill="#6D5FFD"/>
</svg>
