<svg width="20" height="19" viewBox="0 0 20 19" fill="none" xmlns="http://www.w3.org/2000/svg">
<path fill-rule="evenodd" clip-rule="evenodd" d="M1.44531 9.27735C1.44531 5.73192 1.44531 3.9592 2.29016 2.68237C2.66742 2.1122 3.15572 1.6239 3.72589 1.24664C5.00272 0.401794 6.77544 0.401794 10.3209 0.401794C13.8663 0.401794 15.639 0.401794 16.9158 1.24664C17.486 1.6239 17.9743 2.1122 18.3516 2.68237C19.1964 3.9592 19.1964 5.73192 19.1964 9.27735C19.1964 12.8228 19.1964 14.5955 18.3516 15.8723C17.9743 16.4425 17.486 16.9308 16.9158 17.3081C15.639 18.1529 13.8663 18.1529 10.3209 18.1529C6.77544 18.1529 5.00272 18.1529 3.72589 17.3081C3.15572 16.9308 2.66742 16.4425 2.29016 15.8723C1.44531 14.5955 1.44531 12.8228 1.44531 9.27735ZM14.9154 9.27736C14.9154 11.8151 12.8581 13.8723 10.3204 13.8723C7.78265 13.8723 5.72541 11.8151 5.72541 9.27736C5.72541 6.73962 7.78265 4.68238 10.3204 4.68238C12.8581 4.68238 14.9154 6.73962 14.9154 9.27736ZM10.3204 12.3177C11.9995 12.3177 13.3608 10.9565 13.3608 9.27736C13.3608 7.59821 11.9995 6.23699 10.3204 6.23699C8.64124 6.23699 7.28002 7.59821 7.28002 9.27736C7.28002 10.9565 8.64124 12.3177 10.3204 12.3177ZM15.0974 5.53169C15.6938 5.53169 16.1774 5.04815 16.1774 4.45167C16.1774 3.8552 15.6938 3.37166 15.0974 3.37166C14.5009 3.37166 14.0173 3.8552 14.0173 4.45167C14.0173 5.04815 14.5009 5.53169 15.0974 5.53169Z" fill="#6D5FFD"/>
</svg>
