<svg width="19" height="19" viewBox="0 0 19 19" fill="none" xmlns="http://www.w3.org/2000/svg">
<path d="M0.878418 3.28143C0.878418 2.7122 1.07832 2.2426 1.47812 1.87262C1.87791 1.50262 2.39766 1.31763 3.03734 1.31763C3.6656 1.31763 4.1739 1.49977 4.56229 1.86408C4.96208 2.23976 5.16198 2.72928 5.16198 3.33266C5.16198 3.87911 4.9678 4.33448 4.57942 4.69879C4.17963 5.07447 3.65417 5.26232 3.00307 5.26232H2.98593C2.35767 5.26232 1.84937 5.07447 1.46098 4.69879C1.0726 4.3231 0.878418 3.85065 0.878418 3.28143ZM1.10116 18.2234V6.81628H4.90497V18.2234H1.10116ZM7.01249 18.2234H10.8163V11.8539C10.8163 11.4554 10.862 11.148 10.9534 10.9317C11.1133 10.5447 11.356 10.2174 11.6816 9.94983C12.0071 9.6823 12.4155 9.54853 12.9067 9.54853C14.186 9.54853 14.8257 10.408 14.8257 12.1271V18.2234H18.6295V11.6831C18.6295 9.99821 18.2297 8.72032 17.4301 7.84942C16.6305 6.97851 15.5739 6.54306 14.2603 6.54306C12.7867 6.54306 11.6387 7.17489 10.8163 8.43856V8.47271H10.7992L10.8163 8.43856V6.81628H7.01249C7.03533 7.18058 7.04675 8.31332 7.04675 10.2145C7.04675 12.1157 7.03533 14.7853 7.01249 18.2234Z" fill="#6D5FFD"/>
</svg>
