<svg width="21" height="26" viewBox="0 0 21 26" fill="none" xmlns="http://www.w3.org/2000/svg">
<path d="M17.2374 14.6362C17.2374 19.9407 11.8043 23.2086 10.6753 23.8311C10.6127 23.8656 10.5425 23.8837 10.471 23.8837C10.3996 23.8837 10.3293 23.8656 10.2668 23.8311C9.13689 23.2086 3.70557 19.9407 3.70557 14.6362C3.70557 10.4075 6.24278 7.44745 10.4715 7.44745C14.7001 7.44745 17.2374 10.4075 17.2374 14.6362Z" stroke="#170F49" stroke-width="1.38064" stroke-linecap="round" stroke-linejoin="round"/>
<path d="M7.08887 14.2133C7.08887 15.1105 7.44528 15.971 8.07971 16.6054C8.71413 17.2399 9.5746 17.5963 10.4718 17.5963C11.369 17.5963 12.2295 17.2399 12.8639 16.6054C13.4983 15.971 13.8548 15.1105 13.8548 14.2133C13.8548 13.3161 13.4983 12.4557 12.8639 11.8212C12.2295 11.1868 11.369 10.8304 10.4718 10.8304C9.5746 10.8304 8.71413 11.1868 8.07971 11.8212C7.44528 12.4557 7.08887 13.3161 7.08887 14.2133V14.2133Z" stroke="#170F49" stroke-width="1.38064" stroke-linecap="round" stroke-linejoin="round"/>
</svg>
