<svg width="77" height="77" viewBox="0 0 77 77" fill="none" xmlns="http://www.w3.org/2000/svg">
<mask id="mask0_8_1503" style="mask-type:luminance" maskUnits="userSpaceOnUse" x="0" y="0" width="77" height="77">
<path d="M76.481 0.438477H0.480957V76.4385H76.481V0.438477Z" fill="white"/>
</mask>
<g mask="url(#mask0_8_1503)">
<path d="M29.8656 5.05104C34.8593 4.6956 40.0029 4.51001 45.2562 4.51001C50.5098 4.51001 55.6533 4.6956 60.647 5.05105C66.142 5.44219 70.3458 9.5398 70.5939 14.5291C70.9773 22.235 71.1792 30.2343 71.1792 38.4386C71.1792 46.6428 70.9773 54.6422 70.5939 62.3482C70.3458 67.3376 66.142 71.4351 60.647 71.8259C55.6533 72.1815 50.5098 72.3671 45.2562 72.3671C40.0029 72.3671 34.8593 72.1815 29.8656 71.8259C24.3707 71.4351 20.1668 67.3376 19.9187 62.3482C19.7819 59.5986 19.6685 56.8121 19.5783 53.9918V22.8855C19.6685 20.0654 19.7819 17.2786 19.9187 14.5291C20.1668 9.5398 24.3707 5.44218 29.8656 5.05104Z" fill="#E5E2FF"/>
<path d="M38.4815 22.8521C45.3202 28.4551 48.7374 31.8716 54.0684 38.4389C48.7374 45.0063 45.3202 48.4228 38.4815 54.0258" stroke="#4147D5" stroke-width="4" stroke-linecap="round" stroke-linejoin="round"/>
<path d="M19.5783 22.8855C19.6685 20.0654 19.7819 17.2786 19.9187 14.5291C20.1668 9.5398 24.3707 5.44218 29.8656 5.05104C34.8593 4.6956 40.0029 4.51001 45.2562 4.51001C50.5097 4.51001 55.6533 4.6956 60.647 5.05105C66.142 5.44219 70.3458 9.5398 70.5939 14.5291C70.9773 22.235 71.1792 30.2343 71.1792 38.4386C71.1792 46.6428 70.9773 54.6422 70.5939 62.3482C70.3458 67.3376 66.142 71.4351 60.647 71.8259C55.6533 72.1815 50.5098 72.3672 45.2563 72.3672C40.0029 72.3672 34.8593 72.1815 29.8656 71.8259C24.3707 71.4351 20.1668 67.3376 19.9187 62.3482C19.7819 59.5986 19.6685 56.8121 19.5783 53.9918" stroke="#4147D5" stroke-width="4" stroke-linecap="round"/>
<path d="M5.78289 38.4385H53.895" stroke="#4147D5" stroke-width="4" stroke-linecap="round" stroke-linejoin="round"/>
</g>
</svg>
