<svg width="178" height="74" viewBox="0 0 178 74" fill="none" xmlns="http://www.w3.org/2000/svg">
<path fill-rule="evenodd" clip-rule="evenodd" d="M41.9685 41.936C42.1946 41.0045 42.34 40.1205 42.4062 39.2816H34.6902C34.6756 39.7479 34.6368 40.2136 34.5738 40.6766C37.0342 41.3286 39.5138 41.7423 41.9685 41.936ZM14.085 27.8032C19.2319 24.3332 26.2738 24.8826 30.8206 29.4514C33.0205 31.6619 34.2841 34.4593 34.6111 37.344H42.428C41.9487 26.0432 32.6173 16.9985 21.214 16.9985C16.7299 16.9985 12.5662 18.3971 9.13509 20.7815C9.98113 22.2803 10.9321 23.7456 11.9872 25.1749C12.6642 26.0921 13.3643 26.9678 14.085 27.8032ZM5.34766 24.1434C6.70966 26.955 8.30577 29.5596 10.1375 31.9478C9.12686 33.6169 8.51481 35.4618 8.3014 37.344H0C0.214308 32.2901 2.19903 27.6877 5.34766 24.1434ZM31.9297 47.0065C34.3978 47.8083 36.8689 48.3793 39.3426 48.7246C38.6645 50.0715 37.8741 51.4914 36.97 52.9883C33.8986 58.0504 30.1177 63.0792 26.7802 67.5085C25.2389 69.5511 23.7865 71.4827 22.6666 73.0813C22.3339 73.5586 21.7906 73.8361 21.214 73.8361C20.6375 73.8361 20.0941 73.5586 19.7615 73.0813C18.6417 71.4827 17.1891 69.5511 15.6479 67.5085L15.6093 67.4573C12.2813 63.0405 8.50657 58.0309 5.45816 52.9883C2.0987 47.4265 0.309112 42.928 0.0218679 39.2816H8.22229C8.3243 42.5464 9.61426 45.7805 12.0919 48.2701C12.7839 48.9654 15.5827 51.2885 16.2151 51.812C16.2139 51.8109 20.538 58.326 20.538 58.326C20.7433 58.6342 21.0876 58.8194 21.4562 58.8194C21.8249 58.8194 22.1691 58.6342 22.3744 58.326L26.6962 51.8143C27.3155 51.3074 29.9465 49.1494 30.8206 48.2701C31.2214 47.8673 31.5911 47.4451 31.9297 47.0065Z" fill="#0E051F"/>
<mask id="mask0_0_1042" style="mask-type:alpha" maskUnits="userSpaceOnUse" x="11" y="1" width="37" height="47">
<path d="M47.7462 47.7945C36.7008 48.6831 27.2593 46.3375 19.6811 40.334C14.3247 36.093 11.524 30.973 11.1479 25.1522C10.3951 13.6327 20.5998 3.63651 35.8172 1C27.3649 2.8929 21.1109 6.7862 17.2799 12.6603C14.0138 17.672 13.4245 22.9971 15.5459 28.3536C20.0883 39.8213 34.4103 44.9527 45.6132 44.2697C45.4315 44.4241 47.1749 47.535 47.7462 47.7945Z" fill="black"/>
</mask>
<g mask="url(#mask0_0_1042)">
<path d="M58.4642 41.1678L18.587 32.4839C10.2514 34.5181 10.2257 39.1207 11.2547 41.1678L56.9849 56.9043L58.4642 41.1678Z" fill="#6D5FFD"/>
</g>
<path d="M14.7561 16.9025C18.5668 10.2498 23.7715 7.24113 25.8975 6.56836C18.3407 8.63515 13.0607 15.18 11.3652 18.1942C12.3986 17.9358 14.0563 17.2253 14.7561 16.9025Z" fill="#6D5FFD"/>
<path d="M29.8534 4.2274L26.8662 3.01629C29.0622 2.24126 34.832 1.24009 37.4424 0.836426C36.4091 1.99904 31.791 6.00348 29.6112 7.86047L29.8534 4.2274Z" fill="#6D5FFD"/>
<mask id="mask1_0_1042" style="mask-type:alpha" maskUnits="userSpaceOnUse" x="0" y="16" width="43" height="58">
<path fill-rule="evenodd" clip-rule="evenodd" d="M0 37.0857H8.3014C8.62839 34.201 9.89198 31.4036 12.0919 29.1931C17.2603 23.9999 25.6522 23.9999 30.8206 29.1931C33.0205 31.4036 34.2841 34.201 34.6111 37.0857H42.428C41.9487 25.7849 32.6173 16.7402 21.214 16.7402C9.81069 16.7402 0.479298 25.7849 0 37.0857ZM42.4062 39.0233H34.6902C34.5882 42.2881 33.2982 45.5222 30.8206 48.0118C29.9465 48.8911 27.3155 51.0491 26.6962 51.556L22.3744 58.0677C22.1691 58.3759 21.8249 58.5611 21.4562 58.5611C21.0876 58.5611 20.7433 58.3759 20.538 58.0677C20.538 58.0677 16.2139 51.5526 16.2151 51.5536C15.5827 51.0302 12.7839 48.7071 12.0919 48.0118C9.61426 45.5222 8.3243 42.2881 8.22229 39.0233H0.0218679C0.309112 42.6697 2.0987 47.1682 5.45816 52.73C8.50657 57.7726 12.2813 62.7822 15.6093 67.199L15.6479 67.2502C17.1891 69.2928 18.6417 71.2244 19.7615 72.823C20.0941 73.3003 20.6375 73.5778 21.214 73.5778C21.7906 73.5778 22.3339 73.3003 22.6666 72.823C23.7865 71.2244 25.2389 69.2928 26.7802 67.2502C30.1177 62.8209 33.8986 57.7921 36.97 52.73C40.3293 47.1682 42.1189 42.6697 42.4062 39.0233Z" fill="black"/>
</mask>
<g mask="url(#mask1_0_1042)">
<path d="M-4.37842 37.7318H42.7709V25.7831L36.7966 17.7095L26.7047 12.7847L-4.37842 20.9389V37.7318Z" fill="#6D5FFD"/>
</g>
<path d="M58.1927 36.6129L61.9177 49.1216L65.6427 36.6129H67.1068L62.6713 51.4468H61.1856L56.7285 36.6129H58.1927ZM78.3008 41.3923V51.4468H76.8582V49.7244C76.1046 50.9946 74.5328 51.662 73.0686 51.662C70.2049 51.662 67.9225 49.5737 67.9225 46.3873C67.9225 43.2009 70.2049 41.1772 73.0686 41.1772C74.5328 41.1772 76.1046 41.78 76.8582 43.0501V41.3923H78.3008ZM69.3652 46.3873C69.3652 48.6263 70.98 50.2195 73.0686 50.2195C75.1356 50.2195 76.8582 48.8847 76.8582 46.3873C76.8582 43.8898 74.8773 42.6196 73.0686 42.6196C70.98 42.6196 69.3652 44.0836 69.3652 46.3873ZM88.9656 49.2722L89.9992 50.2841C89.0518 51.1669 87.76 51.662 86.3602 51.662C83.4966 51.662 81.1065 49.5737 81.1065 46.3873C81.1065 43.2009 83.4966 41.1772 86.3602 41.1772C87.76 41.1772 89.0303 41.6723 89.9777 42.5335L88.9656 43.5454C88.2767 42.9425 87.3723 42.5981 86.3602 42.5981C84.2717 42.5981 82.5276 44.0621 82.5276 46.3873C82.5276 48.7125 84.2717 50.2411 86.3602 50.2411C87.3723 50.2411 88.2551 49.9182 88.9656 49.2722ZM102.02 41.3923V51.4468H100.577V49.7244C99.8232 50.9946 98.2514 51.662 96.7872 51.662C93.9236 51.662 91.6412 49.5737 91.6412 46.3873C91.6412 43.2009 93.9236 41.1772 96.7872 41.1772C98.2514 41.1772 99.8232 41.78 100.577 43.0501V41.3923H102.02ZM93.0838 46.3873C93.0838 48.6263 94.6987 50.2195 96.7872 50.2195C98.8544 50.2195 100.577 48.8847 100.577 46.3873C100.577 43.8898 98.5959 42.6196 96.7872 42.6196C94.6987 42.6196 93.0838 44.0836 93.0838 46.3873ZM107.904 56.3124H106.418L108.421 51.4253L104.287 41.3923H105.794L109.196 49.5737L112.62 41.3923H114.148L107.904 56.3124ZM126.72 40.7465C126.72 41.7154 126.247 42.9425 124.697 43.5239C126.656 44.0406 127.496 45.6768 127.496 46.9039C127.496 49.3583 125.708 51.4468 122.759 51.4468H116.385V36.6129H122.328C124.998 36.6129 126.72 38.2277 126.72 40.7465ZM119.55 42.4689H122.027C122.866 42.4689 123.405 41.823 123.405 40.9403C123.405 40.0145 122.931 39.3902 122.005 39.3902H119.55V42.4689ZM122.522 45.074H119.55V48.6694H122.586C123.641 48.6694 124.18 47.7221 124.18 46.8395C124.18 45.9998 123.641 45.074 122.522 45.074ZM136.21 46.7103V41.3923H139.203V51.4468H136.21V50.0688C135.672 51.0807 134.573 51.662 133.605 51.662C131.344 51.662 129.621 50.2626 129.621 47.3992V41.3923H132.614V46.7534C132.614 48.3681 133.712 48.7555 134.401 48.7555C135.327 48.7555 136.21 48.2389 136.21 46.7103ZM149.137 46.3873C149.137 44.9018 148.017 43.9975 146.811 43.9975C145.519 43.9975 144.486 44.9233 144.486 46.3873C144.486 47.8728 145.541 48.8201 146.811 48.8201C148.082 48.8201 149.137 47.8513 149.137 46.3873ZM152.173 51.4468H149.201V50.198C148.706 51.1238 147.522 51.662 146.252 51.662C143.668 51.662 141.385 49.6383 141.385 46.4519C141.385 43.2224 143.668 41.1772 146.252 41.1772C147.522 41.1772 148.706 41.6938 149.201 42.6196V35.9238H152.173V51.4468ZM162.089 46.3873C162.089 44.9018 160.97 43.9975 159.764 43.9975C158.472 43.9975 157.439 44.9233 157.439 46.3873C157.439 47.8728 158.494 48.8201 159.764 48.8201C161.035 48.8201 162.089 47.8513 162.089 46.3873ZM165.126 51.4468H162.154V50.198C161.659 51.1238 160.475 51.662 159.204 51.662C156.62 51.662 154.338 49.6383 154.338 46.4519C154.338 43.2224 156.62 41.1772 159.204 41.1772C160.475 41.1772 161.659 41.6938 162.154 42.6196V35.9238H165.126V51.4468ZM177.389 41.3923L171.188 56.377H168.023L170.434 50.4133L166.559 41.3923H169.745L171.963 47.0977L174.203 41.3923H177.389Z" fill="#0E051F"/>
</svg>
