<svg width="223" height="314" viewBox="0 0 223 314" fill="none" xmlns="http://www.w3.org/2000/svg">
<path d="M42.1256 247.916C42.1256 241.624 36.9519 236.522 30.5718 236.522C24.1917 236.522 19.0181 241.624 19.0181 247.916C19.0181 247.916 18.496 251.874 23.0665 258.303C25.1197 261.197 30.5718 269.789 30.5718 269.789C30.5718 269.789 36.0239 261.197 38.0772 258.303C42.6476 251.874 42.1256 247.916 42.1256 247.916ZM30.5718 256.427C25.9202 256.427 22.1501 252.709 22.1501 248.122C22.1501 243.534 25.9202 239.816 30.5718 239.816C35.2235 239.816 38.9936 243.534 38.9936 248.122C38.9936 252.709 35.2235 256.427 30.5718 256.427Z" fill="white"/>
<path d="M57.3092 30.087C54.7651 28.6636 52.1885 27.2402 49.5792 25.8432C48.8616 25.4478 48.6333 24.6571 49.1225 24.0772C49.6118 23.4973 50.5903 23.3128 51.3078 23.7081C53.9498 25.1052 56.559 26.5285 59.103 27.9783C59.8206 28.3736 60.0164 29.1908 59.4945 29.7706C59.201 30.1397 58.679 30.3242 58.1898 30.3242C57.8636 30.3242 57.5701 30.2451 57.2766 30.087H57.3092ZM43.4147 19.5698C40.7728 18.2255 38.0983 16.8812 35.3912 15.5633C34.641 15.1943 33.6626 15.3788 33.206 16.0114C32.7493 16.6176 33.0102 17.4084 33.7604 17.7774C36.4349 19.0954 39.1094 20.4133 41.7187 21.7576C41.9796 21.8894 42.2732 21.9685 42.5668 21.9685C43.0886 21.9685 43.6105 21.7576 43.904 21.3622C44.3607 20.756 44.1649 19.9652 43.4147 19.5962V19.5698ZM102.319 58.6334C102.743 58.6334 103.167 58.5016 103.494 58.2117C104.081 57.6845 104.048 56.8674 103.396 56.3929C101.08 54.706 98.7316 53.019 96.3507 51.3321C95.6983 50.8576 94.6872 50.9367 94.1001 51.4639C93.5131 51.991 93.6109 52.8082 94.2632 53.2826C96.6442 54.9432 98.9599 56.6302 101.243 58.3171C101.537 58.5544 101.928 58.6598 102.319 58.6598V58.6334ZM90.1536 290.906C87.577 289.589 84.9677 288.218 82.3258 286.794C81.6082 286.399 80.6297 286.557 80.1078 287.137C79.6186 287.717 79.8143 288.508 80.5318 288.93C83.2064 290.379 85.8483 291.776 88.425 293.094C88.6859 293.226 88.9794 293.279 89.2729 293.279C89.7948 293.279 90.3167 293.068 90.6102 292.672C91.0668 292.066 90.8385 291.275 90.121 290.906H90.1536ZM27.2698 11.7413C24.5627 10.4761 21.8229 9.2372 19.0505 8.0247C18.2677 7.68204 17.3219 7.91927 16.8979 8.52552C16.4739 9.15813 16.7674 9.92253 17.5175 10.2652C20.2573 11.4777 22.997 12.7166 25.6716 13.9554C25.9325 14.0609 26.1935 14.1136 26.4544 14.1136C27.0089 14.1136 27.5307 13.8763 27.8242 13.481C28.2482 12.8747 27.9873 12.0839 27.2372 11.7413H27.2698ZM88.1314 48.6962C88.5881 48.6962 89.0447 48.5381 89.3382 48.2217C89.8927 47.6682 89.7949 46.8775 89.1425 46.4294C86.7289 44.8215 84.3153 43.2136 81.8365 41.6321C81.1515 41.2103 80.1404 41.2894 79.6186 41.8429C79.0641 42.3965 79.1946 43.2136 79.8796 43.6353C82.3258 45.2169 84.7393 46.7984 87.1529 48.4063C87.4464 48.6171 87.8052 48.6962 88.164 48.6962H88.1314ZM67.1592 277.964C66.4743 277.543 65.4632 277.648 64.9414 278.202C64.4195 278.755 64.5499 279.572 65.2349 279.994C67.7789 281.575 70.323 283.078 72.8018 284.528C73.0954 284.686 73.4215 284.765 73.7151 284.765C74.2043 284.765 74.6936 284.58 74.9872 284.238C75.509 283.658 75.3459 282.867 74.6283 282.445C72.1495 280.996 69.6381 279.493 67.1267 277.938L67.1592 277.964ZM72.4431 38.9962C72.7367 39.1807 73.0627 39.2598 73.3889 39.2598C73.8781 39.2598 74.3348 39.0753 74.661 38.759C75.1828 38.2054 75.0524 37.3883 74.3674 36.9666C71.8886 35.4378 69.3445 33.9353 66.8005 32.4329C66.1156 32.0111 65.1045 32.1429 64.5826 32.7228C64.0608 33.3027 64.2238 34.0935 64.9414 34.5152C67.4854 35.9913 69.9969 37.4937 72.4431 39.0226V38.9962ZM52.5473 268.502C51.8623 268.053 50.8838 268.106 50.2968 268.66C49.7423 269.213 49.8075 270.004 50.4924 270.478C52.9387 272.139 55.3849 273.747 57.7659 275.302C58.0594 275.487 58.4182 275.592 58.7443 275.592C59.2009 275.592 59.6576 275.434 59.9837 275.118C60.5382 274.564 60.4077 273.747 59.7228 273.325C57.3418 271.77 54.9282 270.188 52.482 268.528L52.5473 268.502ZM213.345 203.791C214.095 206.269 214.78 208.72 215.399 211.145C215.562 211.751 216.215 212.173 216.965 212.173C217.063 212.173 217.193 212.173 217.291 212.173C218.139 212.041 218.694 211.356 218.531 210.671C217.911 208.219 217.226 205.715 216.476 203.211C216.28 202.526 215.432 202.104 214.551 202.262C213.703 202.42 213.182 203.132 213.377 203.817L213.345 203.791ZM217.095 218.578C217.617 221.082 218.041 223.586 218.433 226.038C218.531 226.697 219.215 227.171 219.998 227.171C220.064 227.171 220.129 227.171 220.194 227.171C221.075 227.092 221.694 226.459 221.564 225.748C221.205 223.244 220.748 220.74 220.227 218.183C220.096 217.497 219.248 216.997 218.4 217.128C217.519 217.234 216.965 217.893 217.095 218.604V218.578ZM10.7008 4.41356C7.92841 3.25378 5.12347 2.09399 2.28587 0.960567C1.50309 0.644262 0.557239 0.90785 0.165846 1.54046C-0.225548 2.17307 0.100617 2.93747 0.883403 3.25378C3.68839 4.3872 6.49336 5.52063 9.23311 6.68041C9.46143 6.78584 9.72236 6.8122 9.95067 6.8122C10.5051 6.8122 11.0596 6.54861 11.3531 6.12688C11.7445 5.49427 11.451 4.72986 10.6682 4.3872L10.7008 4.41356ZM208.322 189.241C209.268 191.666 210.148 194.091 210.996 196.49C211.192 197.043 211.844 197.412 212.529 197.412C212.66 197.412 212.823 197.412 212.953 197.359C213.801 197.175 214.29 196.463 214.062 195.778C213.214 193.353 212.334 190.928 211.355 188.476C211.094 187.791 210.213 187.422 209.365 187.633C208.517 187.844 208.061 188.556 208.322 189.241ZM219.346 233.524C219.574 236.054 219.737 238.584 219.835 241.036C219.835 241.721 220.553 242.275 221.433 242.275H221.466C222.347 242.275 223.032 241.668 222.999 240.957C222.901 238.453 222.738 235.896 222.51 233.313C222.444 232.601 221.662 232.074 220.814 232.127C219.933 232.179 219.281 232.785 219.346 233.497V233.524ZM205.354 182.098C205.582 182.625 206.202 182.967 206.854 182.967C207.017 182.967 207.213 182.967 207.376 182.888C208.191 182.651 208.648 181.913 208.354 181.254C207.343 178.882 206.234 176.483 205.093 174.085C204.767 173.426 203.853 173.083 203.038 173.347C202.222 173.61 201.798 174.348 202.125 175.007C203.266 177.379 204.31 179.752 205.354 182.098ZM172.966 127.746C173.259 128.141 173.781 128.352 174.303 128.352C174.597 128.352 174.89 128.3 175.151 128.168C175.901 127.799 176.13 127.008 175.673 126.402C174.042 124.267 172.346 122.105 170.617 119.97C170.128 119.364 169.15 119.206 168.432 119.601C167.682 119.997 167.486 120.787 167.976 121.367C169.704 123.502 171.368 125.611 172.998 127.746H172.966ZM191.003 154.236C191.263 154.685 191.851 154.948 192.438 154.948C192.666 154.948 192.894 154.895 193.123 154.816C193.905 154.5 194.232 153.736 193.873 153.103C192.503 150.836 191.1 148.569 189.665 146.276C189.274 145.644 188.295 145.406 187.513 145.723C186.73 146.039 186.436 146.83 186.828 147.462C188.263 149.729 189.665 151.97 191.003 154.21V154.236ZM159.202 310.913C156.234 310.913 153.168 310.728 150.037 310.412C149.189 310.333 148.373 310.834 148.276 311.519C148.178 312.231 148.797 312.863 149.645 312.942C152.907 313.259 156.103 313.443 159.202 313.443C160.082 313.443 160.8 312.863 160.8 312.178C160.8 311.466 160.115 310.886 159.234 310.886L159.202 310.913ZM106.331 298.445C103.657 297.312 100.917 296.099 98.1772 294.808C97.427 294.465 96.4485 294.676 96.0245 295.282C95.6005 295.888 95.8614 296.679 96.6115 297.022C99.4165 298.34 102.189 299.552 104.896 300.712C105.124 300.817 105.385 300.844 105.614 300.844C106.168 300.844 106.723 300.58 107.016 300.158C107.407 299.526 107.114 298.761 106.331 298.419V298.445ZM193.318 302.162C190.905 303.664 188.361 304.982 185.654 306.115C184.871 306.432 184.577 307.223 184.969 307.855C185.262 308.303 185.817 308.54 186.371 308.54C186.632 308.54 186.86 308.488 187.089 308.409C189.926 307.222 192.699 305.799 195.243 304.218C195.928 303.796 196.058 302.979 195.536 302.425C194.982 301.872 194.003 301.766 193.318 302.188V302.162ZM200.755 168.707C201.57 168.444 201.962 167.679 201.603 167.02C200.396 164.701 199.157 162.355 197.852 160.035C197.493 159.403 196.547 159.113 195.765 159.403C194.949 159.693 194.623 160.457 194.982 161.09C196.286 163.409 197.526 165.703 198.7 168.022C198.961 168.523 199.548 168.813 200.168 168.813C200.363 168.813 200.592 168.787 200.787 168.707H200.755ZM185.197 139.581C183.697 137.367 182.131 135.153 180.533 132.939C180.109 132.332 179.13 132.122 178.38 132.491C177.63 132.86 177.369 133.624 177.826 134.23C179.424 136.418 180.957 138.606 182.425 140.82C182.718 141.242 183.24 141.479 183.827 141.479C184.088 141.479 184.349 141.426 184.577 141.321C185.36 140.978 185.621 140.187 185.197 139.581ZM215.693 277.226C214.845 276.989 213.964 277.332 213.671 278.017C212.627 280.416 211.453 282.709 210.148 284.897C209.757 285.529 210.083 286.294 210.898 286.61C211.127 286.689 211.355 286.742 211.583 286.742C212.17 286.742 212.725 286.478 213.018 286.03C214.388 283.763 215.595 281.365 216.671 278.887C216.965 278.228 216.541 277.49 215.693 277.253V277.226ZM221.499 247.335C220.553 247.309 219.9 247.863 219.868 248.574C219.77 251.131 219.607 253.635 219.313 256.06C219.248 256.772 219.868 257.378 220.748 257.457C220.781 257.457 220.846 257.457 220.879 257.457C221.694 257.457 222.379 256.956 222.444 256.297C222.738 253.82 222.901 251.237 222.999 248.653C222.999 247.942 222.347 247.362 221.466 247.335H221.499ZM177.271 308.857C174.434 309.568 171.433 310.096 168.367 310.438C167.486 310.544 166.899 311.176 166.997 311.888C167.095 312.521 167.78 312.995 168.563 312.995C168.628 312.995 168.693 312.995 168.791 312.995C172.02 312.626 175.216 312.072 178.217 311.334C179.065 311.124 179.522 310.412 179.261 309.727C179 309.041 178.119 308.672 177.271 308.883V308.857ZM219.998 262.439C219.15 262.334 218.302 262.808 218.172 263.493C217.683 265.997 217.03 268.475 216.313 270.821C216.084 271.506 216.606 272.192 217.454 272.376C217.585 272.376 217.715 272.403 217.846 272.403C218.563 272.403 219.215 272.007 219.379 271.427C220.129 269.002 220.748 266.472 221.27 263.889C221.401 263.177 220.814 262.518 219.966 262.413L219.998 262.439ZM207.832 290.933C207.115 290.537 206.104 290.696 205.647 291.302C203.951 293.384 202.059 295.361 200.07 297.127C199.483 297.654 199.515 298.471 200.168 298.946C200.461 299.157 200.853 299.289 201.244 299.289C201.668 299.289 202.092 299.157 202.418 298.867C204.538 296.995 206.528 294.913 208.322 292.725C208.811 292.145 208.615 291.328 207.865 290.959L207.832 290.933ZM130.174 77.8753C128.053 76.0038 125.901 74.1587 123.716 72.3136C123.096 71.8128 122.117 71.7864 121.465 72.2873C120.845 72.7881 120.813 73.5788 121.432 74.106C123.618 75.9248 125.738 77.7699 127.825 79.615C128.151 79.8786 128.575 80.0367 128.999 80.0367C129.391 80.0367 129.782 79.9313 130.076 79.6941C130.728 79.2196 130.761 78.4025 130.174 77.8753ZM123.292 304.639C120.487 303.743 117.616 302.768 114.746 301.714C113.963 301.424 113.017 301.714 112.626 302.346C112.267 302.979 112.626 303.743 113.409 304.033C116.344 305.114 119.28 306.115 122.15 307.038C122.346 307.091 122.541 307.117 122.737 307.117C123.357 307.117 123.977 306.801 124.205 306.3C124.531 305.641 124.107 304.903 123.292 304.639ZM115.986 69.0715C116.377 69.0715 116.801 68.9397 117.094 68.7025C117.714 68.2017 117.714 67.3845 117.094 66.8837C114.877 65.0913 112.626 63.3253 110.343 61.5593C109.723 61.0584 108.712 61.0848 108.092 61.612C107.473 62.1128 107.505 62.9299 108.158 63.4307C110.441 65.1704 112.659 66.9364 114.877 68.7025C115.17 68.9397 115.594 69.0715 115.986 69.0715ZM159.985 107.371C159.463 106.791 158.484 106.659 157.767 107.081C157.049 107.503 156.886 108.293 157.408 108.873C159.234 110.929 161.061 112.985 162.79 115.041C163.083 115.41 163.605 115.595 164.094 115.595C164.42 115.595 164.714 115.516 165.007 115.357C165.725 114.962 165.921 114.145 165.399 113.565C163.638 111.483 161.811 109.4 159.952 107.344L159.985 107.371ZM153.103 103.311C153.429 103.311 153.788 103.232 154.049 103.048C154.733 102.626 154.897 101.809 154.342 101.255C152.45 99.2522 150.526 97.249 148.536 95.2457C147.982 94.6922 147.003 94.6131 146.319 95.0348C145.634 95.4829 145.536 96.2737 146.058 96.8272C148.015 98.8041 149.939 100.807 151.798 102.784C152.124 103.127 152.581 103.285 153.07 103.285L153.103 103.311ZM141.002 309.094C138.099 308.567 135.099 307.908 132.065 307.143C131.217 306.933 130.337 307.302 130.076 307.987C129.815 308.672 130.271 309.384 131.119 309.595C134.218 310.386 137.316 311.044 140.317 311.598C140.448 311.598 140.545 311.624 140.676 311.624C141.393 311.624 142.046 311.229 142.209 310.623C142.405 309.937 141.85 309.252 141.002 309.094ZM136.468 83.5424C135.881 83.0153 134.87 82.9625 134.218 83.437C133.566 83.9115 133.5 84.7022 134.087 85.2557C136.142 87.1536 138.197 89.0778 140.187 91.0019C140.513 91.3182 140.937 91.45 141.393 91.45C141.752 91.45 142.111 91.3446 142.405 91.1601C143.089 90.712 143.155 89.8949 142.6 89.3413C140.611 87.3908 138.556 85.4666 136.468 83.5424Z" fill="white"/>
</svg>
