<svg width="373" height="283" viewBox="0 0 373 283" fill="none" xmlns="http://www.w3.org/2000/svg">
<path d="M56.8891 268.888C56.6807 269.332 56.2116 269.579 55.7425 269.579C55.5601 269.579 55.3777 269.554 55.2213 269.48C52.902 268.468 50.6347 267.408 48.4196 266.297C47.7942 265.977 47.5596 265.261 47.8984 264.669C48.2372 264.077 48.9929 263.855 49.6184 264.176C51.7553 265.261 53.9965 266.322 56.2637 267.309C56.8891 267.58 57.1758 268.296 56.8891 268.888ZM52.4589 82.3696C52.902 81.8514 52.7977 81.0866 52.2505 80.6919C51.7032 80.2725 50.8953 80.3711 50.4784 80.8892C48.8887 82.7643 47.3512 84.6394 45.8657 86.5144C45.4488 87.0325 45.553 87.7973 46.1003 88.1921C46.3348 88.3648 46.5954 88.4388 46.856 88.4388C47.2469 88.4388 47.6118 88.2661 47.8724 87.97C49.3578 86.1197 50.8953 84.2446 52.4589 82.3942V82.3696ZM43.2076 260.647C41.0967 259.389 39.038 258.057 37.0835 256.7C36.5102 256.305 35.7284 256.429 35.3114 256.947C34.8944 257.49 35.0247 258.23 35.572 258.624C37.5786 260.031 39.6895 261.388 41.8525 262.671C42.061 262.794 42.2955 262.843 42.53 262.843C42.947 262.843 43.364 262.646 43.5985 262.276C43.9633 261.708 43.807 260.968 43.2076 260.623V260.647ZM34.5296 103.612C33.9563 103.242 33.1484 103.415 32.7836 103.957C31.3763 105.98 30.0212 107.979 28.7182 109.977C28.3534 110.545 28.5358 111.285 29.1352 111.63C29.3436 111.754 29.5782 111.803 29.8127 111.803C30.2297 111.803 30.6467 111.606 30.8812 111.235C32.1842 109.262 33.5133 107.263 34.8944 105.265C35.2853 104.722 35.129 103.957 34.5296 103.612ZM25.9558 247.522C25.4607 247.053 24.6528 247.029 24.1577 247.522C23.6625 247.991 23.6365 248.756 24.1577 249.224C25.9037 250.927 27.754 252.58 29.6824 254.159C29.917 254.356 30.2297 254.455 30.5163 254.455C30.8812 254.455 31.22 254.307 31.4806 254.035C31.9497 253.542 31.8715 252.777 31.3503 252.333C29.4739 250.803 27.6758 249.175 25.9819 247.522H25.9558ZM70.0755 59.2275C68.3556 61.0038 66.6877 62.7555 65.0199 64.5072C64.5508 65.0007 64.6029 65.7655 65.1241 66.2096C65.3587 66.4069 65.6714 66.5056 65.9581 66.5056C66.2968 66.5056 66.6617 66.3576 66.8962 66.1109C68.538 64.3592 70.2058 62.6075 71.8997 60.8558C72.3688 60.3624 72.3428 59.5975 71.8216 59.1535C71.3004 58.7094 70.4925 58.734 70.0234 59.2275H70.0755ZM84.4868 275.993C82.0371 275.5 79.6135 274.932 77.2421 274.34C76.5645 274.143 75.8609 274.562 75.6785 275.179C75.496 275.821 75.913 276.487 76.5906 276.635C78.9881 277.252 81.4638 277.794 83.9395 278.312C84.0177 278.312 84.1219 278.337 84.2001 278.337C84.7734 278.337 85.3207 277.942 85.451 277.4C85.6073 276.758 85.1643 276.117 84.4868 275.969V275.993ZM61.8666 69.7623C61.3454 69.3429 60.5376 69.3922 60.0685 69.8857C58.4267 71.7114 56.811 73.5371 55.2213 75.3381C54.7783 75.8562 54.8565 76.5964 55.3777 77.0405C55.6122 77.2132 55.8989 77.3119 56.1855 77.3119C56.5504 77.3119 56.9152 77.1638 57.1758 76.8678C58.7394 75.0667 60.3551 73.2657 61.9969 71.44C62.4399 70.9465 62.3878 70.1817 61.8666 69.7376V69.7623ZM92.852 38.8486C92.3569 38.3799 91.549 38.3552 91.0539 38.8239C89.2297 40.5016 87.4576 42.1546 85.6855 43.8076C85.1904 44.2764 85.1904 45.0412 85.6855 45.51C85.9201 45.7567 86.2588 45.8554 86.5716 45.8554C86.8843 45.8554 87.2231 45.732 87.4576 45.51C89.2036 43.857 90.9757 42.204 92.7999 40.551C93.2951 40.0822 93.3211 39.3174 92.826 38.8486H92.852ZM70.1277 272.367C67.7301 271.626 65.3847 270.837 63.1175 270.023C62.466 269.776 61.7363 270.097 61.4757 270.714C61.2151 271.33 61.5539 272.021 62.2054 272.268C64.4987 273.107 66.8962 273.921 69.3459 274.661C69.4762 274.71 69.6065 274.71 69.7368 274.71C70.284 274.71 70.7792 274.39 70.9355 273.872C71.144 273.23 70.7792 272.564 70.1277 272.367ZM77.0596 55.6747C78.7535 53.9724 80.4735 52.27 82.2456 50.5677C82.7407 50.0989 82.7147 49.3341 82.2456 48.8653C81.7505 48.3966 80.9426 48.4213 80.4475 48.8653C78.6754 50.5924 76.9293 52.2947 75.2354 53.9971C74.7664 54.4905 74.7664 55.2307 75.2876 55.6994C75.5221 55.9215 75.8348 56.0201 76.1475 56.0201C76.4863 56.0201 76.8251 55.8968 77.0596 55.6501V55.6747ZM1.27694 191.517C1.98057 191.517 2.52783 190.999 2.55389 190.333C2.55389 188.014 2.68419 185.67 2.86661 183.326C2.91873 182.66 2.39753 182.093 1.6939 182.043C1.01634 182.019 0.390901 182.487 0.338781 183.154C0.1303 185.547 0.0260601 187.965 0 190.333C0 190.999 0.547262 191.542 1.25088 191.542L1.27694 191.517ZM3.54417 204.297C3.17933 202.027 2.91873 199.684 2.76237 197.34C2.71025 196.674 2.11087 196.18 1.40724 196.23C0.703622 196.279 0.182421 196.846 0.234541 197.513C0.390901 199.906 0.677562 202.324 1.0424 204.667C1.14664 205.259 1.66784 205.704 2.29329 205.704C2.34541 205.704 2.42359 205.704 2.47571 205.704C3.17933 205.605 3.64841 204.988 3.54417 204.347V204.297ZM2.26723 177.356C2.26723 177.356 2.39753 177.356 2.44965 177.356C3.07509 177.356 3.62235 176.912 3.70053 176.319C4.03931 174.05 4.45627 171.706 4.95141 169.387C5.08171 168.745 4.63869 168.104 3.96113 167.98C3.28357 167.857 2.60601 168.277 2.47571 168.918C1.98057 171.286 1.53754 173.655 1.19876 175.974C1.09452 176.64 1.58966 177.232 2.26723 177.331V177.356ZM5.08172 163.416C5.08172 163.416 5.29019 163.466 5.39444 163.466C5.96776 163.466 6.4629 163.095 6.61926 162.577C7.21864 160.357 7.92226 158.062 8.67801 155.817C8.88649 155.176 8.52164 154.51 7.84408 154.312C7.16652 154.115 6.4629 154.46 6.25442 155.102C5.49868 157.396 4.79505 159.715 4.16961 161.985C3.98719 162.627 4.40415 163.293 5.08172 163.441V163.416ZM38.0477 99.9112C38.4386 99.9112 38.8556 99.7384 39.0901 99.393C40.4974 97.4933 41.9307 95.5689 43.4161 93.6199C43.833 93.0771 43.7028 92.3369 43.1294 91.9422C42.5561 91.5474 41.7743 91.6708 41.3573 92.2136C39.8459 94.1626 38.4126 96.087 37.0053 98.0361C36.6144 98.5789 36.7447 99.319 37.318 99.7138C37.5265 99.8618 37.7871 99.9358 38.0477 99.9358V99.9112ZM16.6524 236.691C16.2615 236.148 15.4797 236 14.8803 236.37C14.307 236.741 14.1506 237.481 14.5415 238.048C15.9488 240.022 17.4863 241.971 19.076 243.821C19.3366 244.117 19.7014 244.265 20.0663 244.265C20.3529 244.265 20.6396 244.167 20.8741 243.994C21.4214 243.575 21.4996 242.81 21.0565 242.316C19.4929 240.515 18.0075 238.616 16.6524 236.716V236.691ZM15.0627 136.672C15.2451 136.746 15.4015 136.771 15.5839 136.771C16.0791 136.771 16.5221 136.499 16.7306 136.08C17.7469 133.983 18.8154 131.861 19.936 129.715C20.2487 129.122 19.9881 128.407 19.3626 128.111C18.7372 127.815 17.9815 128.062 17.6687 128.654C16.5221 130.825 15.4276 132.971 14.4112 135.093C14.1246 135.685 14.4112 136.401 15.0367 136.672H15.0627ZM4.95141 211.181C4.79505 210.539 4.11749 210.12 3.43993 210.292C2.76237 210.441 2.34541 211.082 2.50177 211.723C3.07509 214.067 3.77871 216.411 4.56051 218.656C4.74293 219.15 5.23808 219.47 5.75928 219.47C5.88958 219.47 6.01988 219.47 6.15018 219.421C6.80168 219.224 7.16652 218.533 6.95804 217.916C6.2023 215.72 5.52474 213.45 4.95141 211.181ZM13.0822 140.99C12.4307 140.743 11.701 141.039 11.4404 141.631C10.4762 143.876 9.56405 146.097 8.70407 148.292C8.46952 148.909 8.80831 149.6 9.45981 149.822C9.59011 149.871 9.74647 149.896 9.90283 149.896C10.424 149.896 10.9192 149.6 11.1016 149.107C11.9355 146.935 12.8216 144.74 13.7858 142.519C14.0464 141.902 13.7337 141.212 13.1082 140.965L13.0822 140.99ZM9.56405 224.454C9.27739 223.837 8.5477 223.566 7.8962 223.837C7.2447 224.109 6.95804 224.799 7.2447 225.416C8.26104 227.612 9.38163 229.783 10.6065 231.905C10.841 232.3 11.258 232.522 11.727 232.522C11.9355 232.522 12.144 232.472 12.3264 232.374C12.9519 232.053 13.1603 231.337 12.8216 230.745C11.6489 228.698 10.5543 226.6 9.56405 224.479V224.454ZM26.6073 115.652C26.008 115.306 25.2262 115.504 24.8613 116.096C23.5844 118.193 22.3595 120.265 21.1608 122.313C20.822 122.905 21.0565 123.621 21.682 123.941C21.8644 124.04 22.0729 124.089 22.2814 124.089C22.7244 124.089 23.1674 123.867 23.4019 123.473C24.5747 121.425 25.7995 119.377 27.0504 117.305C27.4152 116.737 27.2067 115.997 26.5813 115.676L26.6073 115.652ZM270.842 239.43C268.653 240.589 266.464 241.7 264.275 242.81C263.65 243.131 263.415 243.846 263.754 244.438C263.989 244.833 264.432 245.08 264.875 245.08C265.083 245.08 265.292 245.03 265.474 244.932C267.663 243.821 269.878 242.686 272.093 241.527C272.693 241.206 272.927 240.466 272.588 239.899C272.25 239.331 271.468 239.109 270.868 239.43H270.842ZM244.157 252.234C241.864 253.221 239.596 254.184 237.329 255.121C236.678 255.392 236.391 256.083 236.678 256.7C236.886 257.144 237.355 257.415 237.85 257.415C238.007 257.415 238.189 257.391 238.345 257.317C240.639 256.379 242.932 255.392 245.225 254.406C245.851 254.134 246.137 253.419 245.851 252.827C245.564 252.234 244.808 251.963 244.183 252.234H244.157ZM257.63 246.066C255.389 247.152 253.148 248.188 250.932 249.2C250.307 249.496 250.046 250.211 250.333 250.803C250.542 251.223 251.011 251.47 251.48 251.47C251.662 251.47 251.845 251.42 252.027 251.346C254.268 250.31 256.509 249.274 258.777 248.188C259.402 247.892 259.637 247.177 259.324 246.585C259.011 245.992 258.255 245.746 257.63 246.066ZM202.33 267.506C199.933 268.222 197.535 268.888 195.164 269.529C194.486 269.702 194.095 270.368 194.304 271.01C194.46 271.528 194.981 271.873 195.529 271.873C195.633 271.873 195.763 271.873 195.868 271.824C198.265 271.182 200.663 270.491 203.086 269.776C203.764 269.579 204.129 268.912 203.92 268.271C203.712 267.63 203.008 267.284 202.33 267.482V267.506ZM230.449 257.884C228.13 258.797 225.811 259.661 223.491 260.499C222.84 260.746 222.501 261.437 222.762 262.054C222.944 262.523 223.439 262.819 223.934 262.819C224.091 262.819 224.247 262.794 224.403 262.745C226.723 261.906 229.068 261.018 231.387 260.105C232.039 259.858 232.352 259.143 232.065 258.55C231.804 257.934 231.049 257.638 230.423 257.909L230.449 257.884ZM216.507 262.991C214.136 263.805 211.79 264.57 209.445 265.335C208.793 265.557 208.428 266.223 208.637 266.865C208.819 267.358 209.315 267.679 209.836 267.679C209.966 267.679 210.096 267.679 210.253 267.605C212.624 266.84 214.996 266.075 217.367 265.261C218.019 265.039 218.357 264.348 218.123 263.731C217.888 263.115 217.159 262.794 216.507 263.016V262.991ZM283.794 232.324C281.631 233.558 279.494 234.742 277.357 235.926C276.758 236.247 276.55 236.987 276.888 237.555C277.123 237.949 277.54 238.147 277.983 238.147C278.191 238.147 278.426 238.098 278.608 237.974C280.771 236.79 282.934 235.581 285.097 234.347C285.697 234.002 285.879 233.262 285.54 232.694C285.175 232.127 284.394 231.954 283.794 232.275V232.324ZM308.864 216.855C306.805 218.212 304.747 219.544 302.688 220.877C302.114 221.247 301.958 221.987 302.349 222.554C302.584 222.9 303.001 223.072 303.391 223.072C303.626 223.072 303.887 222.998 304.095 222.875C306.154 221.543 308.239 220.211 310.297 218.829C310.871 218.459 311.001 217.694 310.61 217.151C310.219 216.608 309.411 216.485 308.838 216.855H308.864ZM322.754 208.788C322.337 208.269 321.529 208.146 320.982 208.541C318.975 209.972 316.969 211.353 314.962 212.735C314.389 213.13 314.258 213.87 314.675 214.413C314.936 214.733 315.301 214.906 315.692 214.906C315.952 214.906 316.213 214.832 316.448 214.684C318.454 213.302 320.487 211.896 322.493 210.465C323.041 210.07 323.171 209.306 322.754 208.788ZM296.459 224.799C294.349 226.107 292.264 227.365 290.153 228.624C289.553 228.969 289.371 229.709 289.762 230.277C289.997 230.647 290.413 230.844 290.83 230.844C291.065 230.844 291.3 230.795 291.508 230.671C293.619 229.413 295.73 228.13 297.841 226.823C298.44 226.452 298.596 225.712 298.205 225.17C297.815 224.627 297.033 224.454 296.459 224.824V224.799ZM114.065 279.521C111.563 279.423 109.087 279.275 106.612 279.077C105.882 278.979 105.309 279.521 105.257 280.163C105.205 280.829 105.726 281.396 106.403 281.446C108.879 281.643 111.407 281.791 113.935 281.89H113.987C114.664 281.89 115.212 281.396 115.264 280.755C115.29 280.089 114.743 279.521 114.065 279.497V279.521ZM126.209 12.0551C126.756 11.6357 126.808 10.8709 126.365 10.3528C125.922 9.85934 125.114 9.78532 124.567 10.2047C122.639 11.7591 120.736 13.2887 118.86 14.8184C118.339 15.2624 118.261 16.0026 118.73 16.5207C118.99 16.7921 119.329 16.9401 119.694 16.9401C119.981 16.9401 120.293 16.8414 120.528 16.6441C122.404 15.1144 124.307 13.5848 126.235 12.0304L126.209 12.0551ZM113.179 19.506C111.277 21.085 109.4 22.664 107.576 24.243C107.055 24.687 107.003 25.4519 107.472 25.9453C107.732 26.2167 108.071 26.34 108.41 26.34C108.723 26.34 109.009 26.2414 109.27 26.044C111.094 24.465 112.97 22.9107 114.873 21.3317C115.394 20.8876 115.446 20.1474 114.977 19.6293C114.508 19.1359 113.7 19.0866 113.179 19.5307V19.506ZM187.945 271.38C185.522 271.972 183.098 272.539 180.701 273.082C180.023 273.23 179.606 273.872 179.762 274.513C179.893 275.056 180.414 275.451 180.987 275.451C181.091 275.451 181.17 275.451 181.274 275.426C183.697 274.883 186.147 274.316 188.597 273.723C189.274 273.551 189.691 272.909 189.509 272.268C189.326 271.626 188.623 271.232 187.971 271.404L187.945 271.38ZM128.971 279.62C127.043 279.669 125.14 279.694 123.264 279.694H121.518C120.867 279.595 120.241 280.212 120.241 280.878C120.241 281.544 120.788 282.087 121.492 282.087H123.264C125.167 282.087 127.095 282.087 129.049 282.013C129.753 282.013 130.3 281.446 130.274 280.78C130.274 280.113 129.701 279.62 128.971 279.62ZM99.2107 278.337C96.7089 278.041 94.2593 277.696 91.8357 277.326C91.1581 277.227 90.4806 277.646 90.3763 278.312C90.246 278.979 90.7151 279.595 91.4187 279.694C93.8684 280.089 96.3702 280.434 98.898 280.73C98.9501 280.73 99.0022 280.73 99.0543 280.73C99.6798 280.73 100.227 280.286 100.305 279.669C100.383 279.003 99.8883 278.411 99.2107 278.337ZM102.025 29.0293C100.175 30.6576 98.3247 32.2859 96.5265 33.8896C96.0314 34.3584 96.0053 35.0985 96.4744 35.5919C96.735 35.8387 97.0477 35.962 97.3865 35.962C97.6992 35.962 98.0119 35.8633 98.2465 35.6413C100.045 34.0376 101.869 32.4093 103.719 30.8056C104.24 30.3615 104.266 29.5967 103.797 29.1033C103.328 28.6098 102.52 28.5852 101.999 29.0293H102.025ZM158.706 277.079C156.23 277.424 153.754 277.745 151.305 278.041C150.601 278.115 150.106 278.707 150.21 279.373C150.288 279.99 150.836 280.434 151.461 280.434C151.513 280.434 151.565 280.434 151.618 280.434C154.093 280.163 156.569 279.842 159.097 279.472C159.8 279.373 160.269 278.757 160.165 278.115C160.061 277.449 159.436 277.005 158.732 277.104L158.706 277.079ZM173.404 274.587C170.954 275.056 168.504 275.525 166.055 275.919C165.377 276.043 164.908 276.659 165.038 277.301C165.143 277.893 165.69 278.288 166.289 278.288C166.368 278.288 166.446 278.288 166.524 278.288C168.974 277.868 171.449 277.424 173.925 276.931C174.603 276.807 175.046 276.166 174.915 275.5C174.785 274.858 174.107 274.439 173.43 274.562L173.404 274.587ZM137.936 1.29825C137.493 0.780143 136.685 0.706119 136.164 1.12554C134.209 2.63051 132.255 4.13549 130.352 5.64047C129.805 6.05989 129.727 6.82471 130.196 7.34282C130.457 7.63888 130.822 7.78691 131.186 7.78691C131.473 7.78691 131.76 7.68822 131.994 7.51552C133.897 6.01054 135.825 4.53024 137.78 3.02526C138.327 2.60584 138.405 1.84102 137.962 1.34758L137.936 1.29825ZM143.852 278.781C141.35 279.003 138.874 279.176 136.398 279.299C135.695 279.349 135.174 279.916 135.2 280.558C135.252 281.199 135.799 281.692 136.451 281.692H136.529C139.004 281.544 141.532 281.372 144.06 281.15C144.764 281.1 145.259 280.508 145.207 279.842C145.155 279.176 144.529 278.732 143.826 278.757L143.852 278.781Z" fill="white"/>
<path d="M364.937 184.478C368.655 181.546 372.688 177.311 372.038 176.523C371.387 175.735 366.313 178.668 362.595 181.619C362.261 181.894 361.926 182.15 361.61 182.407C360.959 182.297 359.603 182.077 357.874 181.802C357.892 181.802 357.93 181.802 357.948 181.802L358.952 181.014C359.082 180.922 359.082 180.721 358.952 180.592L358.171 179.639C358.06 179.493 357.874 179.456 357.744 179.566L356.74 180.354C356.74 180.354 356.666 180.464 356.647 180.537L355.476 181.454C354.008 181.216 352.409 180.959 350.829 180.702L351.814 179.932C351.944 179.841 351.944 179.639 351.814 179.511L351.034 178.558C350.922 178.411 350.736 178.374 350.606 178.484L349.602 179.273C349.602 179.273 349.528 179.383 349.509 179.456L348.376 180.336C344.361 179.694 340.996 179.181 340.885 179.218C340.606 179.309 339.175 180.519 339.175 180.519C338.822 180.794 338.58 181.051 338.599 181.087C338.636 181.124 339.045 180.849 339.379 180.592L346.759 183.25C346.498 183.489 346.35 183.709 346.405 183.782C346.48 183.874 346.814 183.709 347.149 183.434L347.186 183.397L348.636 183.929C348.394 184.148 348.246 184.368 348.301 184.442C348.376 184.533 348.71 184.368 349.045 184.093L350.365 184.552L351.164 185.12C350.866 185.377 350.662 185.633 350.718 185.707C350.792 185.798 351.127 185.633 351.461 185.358H351.48L353.06 186.458C352.762 186.715 352.558 186.971 352.632 187.045C352.707 187.136 353.041 186.971 353.376 186.696L354.826 187.723C352.353 189.721 351.387 190.528 349.547 191.994C347.688 193.46 345.996 195 344.64 196.375C342.446 196.045 338.115 195.33 338.115 195.33L337 196.063L341.703 199.656C341.442 200.004 341.238 200.279 341.126 200.499C340.402 201.159 339.974 201.599 340.03 201.673C340.086 201.746 340.606 201.453 341.387 200.903C341.628 200.829 341.963 200.664 342.39 200.463L344.937 205.834L345.922 204.935C345.922 204.935 346.182 200.316 346.331 198.208C347.93 197.218 349.751 196.045 351.647 194.744C353.952 192.929 354.993 192.159 357.13 190.509L357.818 192.122C357.465 192.416 357.242 192.691 357.316 192.782C357.372 192.856 357.669 192.727 358.004 192.489L358.766 194.267H358.748C358.394 194.56 358.171 194.854 358.246 194.927C358.301 195 358.617 194.872 358.933 194.634L359.324 195.513L359.51 196.888C359.156 197.163 358.933 197.457 359.008 197.548C359.064 197.621 359.305 197.53 359.584 197.328L359.788 198.85H359.751C359.398 199.143 359.175 199.436 359.249 199.528C359.305 199.601 359.565 199.491 359.844 199.29L360.848 206.97C360.532 207.245 360.16 207.575 360.179 207.612C360.216 207.648 360.513 207.465 360.867 207.19C360.867 207.19 362.391 206.072 362.521 205.834C362.577 205.742 362.8 202.387 363.06 198.391L364.194 197.511C364.194 197.511 364.342 197.511 364.398 197.475L365.402 196.687C365.532 196.595 365.532 196.393 365.402 196.265L364.621 195.312C364.51 195.165 364.324 195.129 364.194 195.239L363.209 196.008C363.301 194.432 363.394 192.856 363.487 191.371L364.658 190.454C364.658 190.454 364.807 190.454 364.863 190.418L365.867 189.629C365.997 189.538 365.997 189.336 365.867 189.208L365.086 188.255C364.974 188.108 364.789 188.071 364.658 188.181L363.655 188.969C363.655 188.969 363.655 189.006 363.617 189.043C363.729 187.338 363.803 186 363.841 185.34C364.157 185.083 364.491 184.827 364.844 184.552L364.937 184.478Z" fill="white"/>
</svg>
