<svg width="19" height="19" viewBox="0 0 19 19" fill="none" xmlns="http://www.w3.org/2000/svg">
<path d="M11.692 17.0467L11.7009 17.053C12.4771 17.5472 13.3986 17.7618 14.3133 17.6613C15.2279 17.5609 16.0809 17.1514 16.7313 16.5005L17.2964 15.9355C17.4216 15.8104 17.5209 15.6618 17.5887 15.4982C17.6564 15.3347 17.6913 15.1594 17.6913 14.9824C17.6913 14.8054 17.6564 14.6301 17.5887 14.4666C17.5209 14.303 17.4216 14.1545 17.2964 14.0293L14.9132 11.648C14.7881 11.5228 14.6395 11.4234 14.476 11.3557C14.3124 11.2879 14.1372 11.253 13.9601 11.253C13.7831 11.253 13.6078 11.2879 13.4443 11.3557C13.2808 11.4234 13.1322 11.5228 13.0071 11.648C12.7544 11.9006 12.4117 12.0425 12.0544 12.0425C11.6971 12.0425 11.3545 11.9006 11.1018 11.648L7.29127 7.83655C7.03866 7.58387 6.89676 7.24121 6.89676 6.88392C6.89676 6.52663 7.03866 6.18397 7.29127 5.93129C7.41648 5.80616 7.51581 5.65758 7.58358 5.49405C7.65134 5.33051 7.68622 5.15523 7.68622 4.97821C7.68622 4.80119 7.65134 4.62591 7.58358 4.46237C7.51581 4.29884 7.41648 4.15026 7.29127 4.02513L4.90902 1.64378C4.65634 1.39117 4.31367 1.24927 3.95639 1.24927C3.5991 1.24927 3.25643 1.39117 3.00375 1.64378L2.43784 2.2088C1.78711 2.85932 1.37779 3.71237 1.2775 4.62701C1.17722 5.54165 1.39198 6.46313 1.88629 7.23919L1.89168 7.24817C4.50226 11.1106 7.82905 14.4368 11.692 17.0467V17.0467Z" stroke="#170F49" stroke-width="1.38064" stroke-linecap="round" stroke-linejoin="round"/>
</svg>
