<svg width="19" height="16" viewBox="0 0 19 16" fill="none" xmlns="http://www.w3.org/2000/svg">
<path d="M12.873 1.07998V1.07678H13.7053L14.0094 1.13752C14.2122 1.17696 14.3962 1.22863 14.5616 1.29257C14.727 1.35651 14.8871 1.43111 15.0418 1.51635C15.1966 1.60159 15.3369 1.68845 15.4628 1.77689C15.5877 1.86428 15.6997 1.95699 15.7989 2.05502C15.8971 2.15412 16.0502 2.1797 16.2583 2.13174C16.4664 2.08379 16.6905 2.01719 16.9306 1.93194C17.1707 1.8467 17.4081 1.75079 17.6429 1.64422C17.8776 1.53766 18.0206 1.47 18.0718 1.44122C18.122 1.4114 18.1487 1.39541 18.1519 1.39327L18.1551 1.38848L18.1711 1.38048L18.1871 1.37249L18.2031 1.3645L18.2191 1.35651L18.2223 1.35171L18.2271 1.34852L18.2319 1.34532L18.2351 1.34052L18.2511 1.33573L18.2671 1.33253L18.2639 1.35651L18.2591 1.38048L18.2511 1.40446L18.2431 1.42844L18.2351 1.44442L18.2271 1.46041L18.2191 1.48438C18.2138 1.50037 18.2084 1.52167 18.2031 1.54832C18.1978 1.57496 18.1471 1.68152 18.051 1.868C17.955 2.05449 17.8349 2.24363 17.6909 2.43545C17.5468 2.62726 17.4177 2.77217 17.3035 2.87022C17.1883 2.96932 17.112 3.03858 17.0746 3.07801C17.0373 3.1185 16.9919 3.15579 16.9386 3.1899L16.8585 3.24265L16.8425 3.25064L16.8265 3.25864L16.8233 3.26343L16.8185 3.26663L16.8137 3.26983L16.8105 3.27462L16.7945 3.28261L16.7785 3.29061L16.7753 3.2954L16.7705 3.2986L16.7657 3.30179L16.7625 3.30659L16.7593 3.31139L16.7545 3.31458L16.7497 3.31778L16.7465 3.32257H16.8265L17.2747 3.22667C17.5735 3.16273 17.8589 3.08548 18.1311 2.9949L18.5632 2.85104L18.6112 2.83505L18.6353 2.82706L18.6513 2.81907L18.6673 2.81108L18.6833 2.80308L18.6993 2.79509L18.7313 2.7903L18.7633 2.7871V2.81907L18.7553 2.82227L18.7473 2.82706L18.7441 2.83186L18.7393 2.83505L18.7345 2.83825L18.7313 2.84305L18.7281 2.84784L18.7233 2.85104L18.7185 2.85423L18.7153 2.85903L18.7121 2.86383L18.7073 2.86702L18.6993 2.88301L18.6913 2.89899L18.6865 2.90219C18.6843 2.90538 18.6166 2.99595 18.4832 3.17392C18.3498 3.35294 18.2778 3.44351 18.2671 3.44565C18.2565 3.44885 18.2415 3.46483 18.2223 3.49361C18.2042 3.52343 18.091 3.64226 17.883 3.85006C17.6749 4.05785 17.4711 4.24273 17.2715 4.40471C17.0709 4.56775 16.9695 4.76808 16.9674 5.00572C16.9642 5.24229 16.9519 5.50977 16.9306 5.80813C16.9092 6.10651 16.8692 6.42885 16.8105 6.77518C16.7518 7.12151 16.6611 7.51313 16.5384 7.95002C16.4157 8.38692 16.2663 8.81318 16.0902 9.22877C15.9142 9.64436 15.7301 10.0173 15.538 10.3477C15.3459 10.678 15.1699 10.9577 15.0098 11.1868C14.8497 11.4159 14.687 11.6317 14.5216 11.8342C14.3562 12.0367 14.1471 12.2647 13.8942 12.5183C13.6402 12.7709 13.5015 12.9094 13.478 12.9339C13.4535 12.9574 13.3489 13.0448 13.1643 13.1961C12.9807 13.3484 12.7833 13.5008 12.572 13.6532C12.3618 13.8045 12.1687 13.9308 11.9926 14.032C11.8165 14.1333 11.6042 14.2489 11.3555 14.3789C11.108 14.51 10.8401 14.6315 10.552 14.7433C10.2639 14.8552 9.95979 14.9591 9.63966 15.055C9.31953 15.1509 9.01008 15.2255 8.71129 15.2788C8.41251 15.3321 8.0737 15.3774 7.69488 15.4147L7.12665 15.4706V15.4786H6.08624V15.4706L5.95018 15.4626C5.85949 15.4573 5.78479 15.452 5.72609 15.4467C5.66741 15.4413 5.44598 15.412 5.06183 15.3587C4.67767 15.3055 4.37622 15.2522 4.15747 15.1989C3.93872 15.1456 3.61325 15.0444 3.18107 14.8952C2.7489 14.746 2.37915 14.5952 2.07183 14.4428C1.76558 14.2915 1.5735 14.1956 1.4956 14.1551C1.41877 14.1157 1.33234 14.0667 1.2363 14.0081L1.09224 13.9202L1.08905 13.9154L1.08424 13.9122L1.07943 13.909L1.07623 13.9042L1.06023 13.8962L1.04422 13.8882L1.04103 13.8834L1.03622 13.8802L1.03141 13.877L1.02821 13.8722L1.02503 13.8674L1.02021 13.8642H1.01221V13.8322L1.02821 13.8354L1.04422 13.8402L1.11625 13.8482C1.16427 13.8535 1.29499 13.8615 1.50841 13.8722C1.72183 13.8829 1.94858 13.8829 2.18868 13.8722C2.42877 13.8615 2.67422 13.8376 2.92497 13.8003C3.17574 13.763 3.47186 13.699 3.81333 13.6085C4.15481 13.5179 4.46853 13.4103 4.75452 13.2856C5.03943 13.1598 5.24217 13.0661 5.36276 13.0043C5.48227 12.9435 5.66474 12.8306 5.91017 12.6654L6.27831 12.4176L6.28152 12.4128L6.28632 12.4096L6.29114 12.4064L6.29432 12.4016L6.29752 12.3969L6.30232 12.3937L6.30714 12.3905L6.31033 12.3857L6.32633 12.3809L6.34234 12.3777L6.34554 12.3617L6.35034 12.3457L6.35516 12.3425L6.35835 12.3377L6.23029 12.3297C6.14493 12.3244 6.06223 12.3191 5.9822 12.3137C5.90216 12.3084 5.77679 12.2844 5.60605 12.2418C5.43532 12.1992 5.25125 12.1352 5.05382 12.05C4.85642 11.9647 4.66434 11.8635 4.47759 11.7463C4.29086 11.6291 4.15586 11.5316 4.07263 11.4538C3.99047 11.377 3.88376 11.2684 3.7525 11.1277C3.62232 10.986 3.50921 10.8405 3.41317 10.6913C3.31713 10.5421 3.22536 10.37 3.13787 10.175L3.005 9.88412L2.997 9.86015L2.989 9.83617L2.9842 9.82019L2.98099 9.8042L3.005 9.8074L3.02901 9.81219L3.20508 9.83617C3.32248 9.85215 3.50655 9.85748 3.75731 9.85215C4.00808 9.84683 4.18148 9.83617 4.27751 9.82019C4.37355 9.8042 4.43225 9.79354 4.45358 9.78822L4.4856 9.78022L4.52561 9.77223L4.56563 9.76424L4.56883 9.75945L4.57363 9.75625L4.57845 9.75305L4.58164 9.74826L4.54962 9.74026L4.51761 9.73227L4.4856 9.72428L4.45358 9.71629L4.42157 9.7083C4.40023 9.70297 4.36289 9.69231 4.30953 9.67633C4.25618 9.66034 4.11212 9.60173 3.87735 9.5005C3.6426 9.39927 3.45586 9.3007 3.31713 9.20479C3.17806 9.10861 3.04545 9.00342 2.92017 8.8899C2.79532 8.77481 2.65821 8.62669 2.50881 8.44554C2.35942 8.26439 2.22604 8.05392 2.10865 7.81416C1.99127 7.57439 1.90324 7.34529 1.84454 7.12683C1.78608 6.90966 1.74751 6.68763 1.72931 6.46349L1.70048 6.12782L1.71649 6.13101L1.7325 6.13581L1.7485 6.1438L1.76451 6.15179L1.78051 6.15978L1.79652 6.16778L2.04462 6.27967C2.21003 6.35427 2.41544 6.4182 2.66087 6.47148C2.90631 6.52475 3.05302 6.55407 3.10104 6.55939L3.17307 6.56738H3.31713L3.31394 6.56259L3.30913 6.55939L3.30432 6.55619L3.30112 6.5514L3.29794 6.5466L3.29312 6.54341L3.28832 6.54021L3.28512 6.53542L3.26911 6.52742L3.2531 6.51943L3.24992 6.51464L3.2451 6.51144L3.2403 6.50824L3.2371 6.50345L3.22109 6.49545L3.20508 6.48746L3.2019 6.48267C3.1987 6.48053 3.15281 6.44643 3.06423 6.38037C2.97672 6.31323 2.88496 6.22639 2.78892 6.11982C2.69288 6.01326 2.59684 5.90137 2.5008 5.78415C2.40459 5.66667 2.31889 5.54098 2.2447 5.40852C2.17001 5.27533 2.09104 5.10588 2.00781 4.90022C1.92564 4.69562 1.86322 4.48943 1.82053 4.28163C1.77786 4.07384 1.75385 3.86871 1.7485 3.66624C1.74317 3.46376 1.7485 3.29061 1.76451 3.14675C1.78051 3.00289 1.81253 2.84038 1.86055 2.65923C1.90857 2.47808 1.97794 2.28627 2.06863 2.08379L2.20468 1.78009L2.21269 1.75611L2.22069 1.73214L2.22551 1.72894L2.22869 1.72415L2.23189 1.71935L2.2367 1.71615L2.24151 1.71935L2.2447 1.72415L2.2479 1.72894L2.2527 1.73214L2.25752 1.73533L2.26071 1.74013L2.26391 1.74493L2.26871 1.74812L2.27671 1.76411L2.28472 1.78009L2.28953 1.78329L2.29272 1.78808L2.50881 2.02785C2.65286 2.18769 2.8236 2.36619 3.02101 2.56332C3.21843 2.76045 3.32781 2.86275 3.34914 2.87022C3.37049 2.87874 3.39716 2.90324 3.42917 2.94375C3.46119 2.98318 3.5679 3.07749 3.7493 3.22667C3.93072 3.37585 4.16814 3.54902 4.46159 3.74616C4.75505 3.94329 5.08051 4.13777 5.43798 4.32958C5.79546 4.5214 6.17962 4.69455 6.59044 4.84907C7.00128 5.00359 7.28939 5.10482 7.45478 5.15277C7.62019 5.20073 7.90296 5.262 8.30312 5.33659C8.70328 5.41119 9.00475 5.45915 9.20749 5.48045C9.41024 5.50176 9.54897 5.51402 9.62365 5.51722L9.7357 5.52041L9.73251 5.49644L9.72769 5.47246L9.69568 5.27266C9.67435 5.13946 9.66367 4.95297 9.66367 4.71321C9.66367 4.47344 9.68235 4.25233 9.71969 4.04986C9.75705 3.84739 9.81307 3.64226 9.88776 3.43446C9.96246 3.22667 10.0356 3.05989 10.107 2.93416C10.1796 2.80948 10.2746 2.66722 10.392 2.50738C10.5094 2.34753 10.6614 2.18237 10.8481 2.01186C11.0349 1.84136 11.2483 1.68951 11.4884 1.55631C11.7285 1.42311 11.9499 1.32187 12.1527 1.25261C12.3554 1.18335 12.5262 1.13805 12.6649 1.11674C12.8036 1.09544 12.873 1.08318 12.873 1.07998Z" fill="#6D5FFD"/>
</svg>
