<svg width="22" height="16" viewBox="0 0 22 16" fill="none" xmlns="http://www.w3.org/2000/svg">
<path d="M11.6059 15.1607L7.59983 15.0859C6.30277 15.0598 5.00248 15.1118 3.73085 14.8415C1.79641 14.4377 1.65937 12.4576 1.51597 10.7966C1.31838 8.46151 1.39487 6.08403 1.76775 3.76842C1.97825 2.46912 2.80667 1.69382 4.08779 1.60946C8.4125 1.30327 12.766 1.33956 17.0811 1.4824C17.5368 1.4955 17.9957 1.56707 18.4451 1.64854C20.6633 2.04589 20.7174 4.28982 20.8612 6.17879C21.0046 8.08725 20.944 10.0055 20.6699 11.901C20.45 13.4704 20.0293 14.7865 18.2538 14.9135C16.0293 15.0797 13.8558 15.2134 11.6249 15.1708C11.625 15.1607 11.6122 15.1607 11.6059 15.1607ZM9.2507 11.1875C10.9271 10.2038 12.5715 9.23661 14.2383 8.25959C12.5588 7.27597 10.9175 6.30874 9.2507 5.33172V11.1875Z" fill="#6D5FFD"/>
</svg>
